<?xml version="1.0" encoding="utf-8"?>
<!-- Generator: Adobe Illustrator 25.3.1, SVG Export Plug-In . SVG Version: 6.00 Build 0)  -->
<svg version="1.1" id="Layer_1" xmlns="http://www.w3.org/2000/svg" xmlns:xlink="http://www.w3.org/1999/xlink" x="0px" y="0px"
	 viewBox="0 0 512 512" style="enable-background:new 0 0 512 512;" xml:space="preserve">
<style type="text/css">
	.st0{fill:#827377;}
</style>
<path class="st0" d="M256,0C114.7,0,0.1,114.6,0.1,255.9S114.7,511.8,256,511.8s255.9-114.6,255.9-255.9S397.3,0,256,0z
	 M406.1,196.6c11.6,0,16.2,2.9,17.9,4.3c0.5,0.4,0.8,1,0.8,1.7v5.6c0,0,0.5,3.5-5.9,1.4c-5-1.6-18.3-4-26.8,4.4
	c-8.5,8.5-6,32,0.5,38.6c6.6,6.6,19,5.7,23,4.7c2.8-0.6,6.5-1.9,7.9-1.5c0.7,0.2,1.3,0.8,1.3,1.6v6.2c0,0.6-0.2,1.2-0.6,1.6
	c-1.4,1.5-5.7,4.2-18.1,4.2c-16.8,0-34.4-6.5-34.4-36.5C371.6,202.8,390.5,196.6,406.1,196.6z M351,168.7c5,0,9.1,4.1,9.1,9.1
	s-4.1,9.1-9.1,9.1s-9.1-4.1-9.1-9.1C342,172.7,346,168.7,351,168.7z M358.4,199.2v67.3c0,0.8-0.6,1.4-1.4,1.4h-12
	c-0.8,0-1.4-0.6-1.4-1.4v-67.3c0-0.8,0.6-1.4,1.4-1.4h12C357.8,197.8,358.4,198.4,358.4,199.2z M280.8,257.1c0-1.6,1.6-2.8,3.2-2.3
	c4.3,1.4,12.5,3.7,20.6,3.7c11.9,0,14.3-5.2,14.3-9.4c0-4.3-2.3-6.9-14.8-11.1c-12.5-4.3-22.2-8.3-22.2-22.2s13.3-20.5,25.6-20.5
	c9.7,0,17,4.1,19.7,5.8c0.7,0.4,1.1,1.2,1.1,2v2.9c0,0,0.1,4-2.2,4c-3,0-10.1-3.1-16.7-3.1s-14.5,1.4-14.5,8.4
	c0,7.1,6.2,8.3,18.9,12.7c12.7,4.3,18.4,8.3,18.4,21.2c0,13-10.7,21-27.7,21c-13.2,0-20.2-3.7-22.7-5.4c-0.7-0.4-1.1-1.2-1.1-2v-5.7
	H280.8z M208.1,199c0-0.7,0.5-1.2,1.2-1.2h12.6c0.7,0,1.2,0.5,1.2,1.2v49.5c0,0-0.3,9.5,9,9.5c14.3,0.1,21-6.5,21-6.5V199
	c0-0.7,0.5-1.2,1.2-1.2H267c0.7,0,1.2,0.5,1.2,1.2v67.7c0,0.7-0.5,1.2-1.2,1.2h-7.1c-5.5,0-5.9-6-5.9-6s-10.3,8.5-25.5,8.5
	c-19.3,0-20.5-17.6-20.5-17.6V199H208.1z M87.3,199.6c0-1,0.8-1.8,1.8-1.8h6.3c5.4,0,5.8,6,5.8,6s10.1-8.5,25.1-8.5
	c10.6,0,15.6,5.5,18,10.3l2.4-1.8c0,0,10.1-8.5,25.1-8.5c19,0,20.1,17.6,20.1,17.6v53.7c0,0.7-0.6,1.3-1.3,1.3h-12.1
	c-0.7,0-1.3-0.6-1.3-1.3v-49.4c0,0,0.3-9.5-8.9-9.5c-14-0.1-21.8,6.2-21.8,6.2v47.6v4.8c0,0.9-0.7,1.6-1.6,1.6H140h-6.8h-0.5v-0.1
	c-0.6-0.2-1.1-0.8-1.1-1.5v-49.1c0,0,0.3-9.5-8.9-9.5c-14-0.1-20.6,6.5-20.6,6.5v52.1c0,0.9-0.7,1.6-1.6,1.6H88.9
	c-0.9,0-1.6-0.7-1.6-1.6V199.6z M400.6,327.7c-3,2.4-6.1,4.6-9.3,6.6c-23.6,15.2-49.4,25-76.6,31.3c-20.9,4.8-42,7.2-69.4,6.8
	c-48-1.2-97.4-16.6-141.6-47.8c-8.1-5.7-15.9-12-23.3-18.5c-0.5-0.4-0.9-0.8-1.3-1.3c-1-1.2-1.4-2.6-0.4-4s2.5-1.5,3.9-1
	c1.3,0.5,2.5,1.2,3.7,1.9c25.5,14.5,52.5,25.3,80.8,32.9c20.6,5.5,41.6,9.2,62.9,11c18.7,1.6,37.3,1.8,55.9,0.3
	c36.9-3,72.5-11.6,106.7-25.8c1.4-0.6,2.8-1.2,4.4-1.2c2.3,0,4.2,0.9,5.2,3.1C403.2,324.2,402.4,326.3,400.6,327.7z M433.9,304.2
	c-1.2,19.8-7.8,37.5-22.4,51.6c-0.2,0.2-0.3,0.3-0.5,0.5c-1.5,1.1-3.1,2.7-4.9,1.3c-1.6-1.3-0.4-3.1,0.2-4.6
	c3.8-9.9,7.8-19.7,10-30.1c0.5-2.5,0.9-5.1,0.9-7.7c-0.1-4.7-1.5-6.5-6.2-7.7c-4.4-1.1-8.9-1.1-14.4-1c-7.9,0-16.7,1.1-25.6,2.1
	c-1.3,0.1-2.8,0.4-3.5-1c-0.8-1.6,0.3-2.8,1.5-3.7c3.8-3,8.2-5.1,12.7-6.7c14.6-5.1,29.6-6,44.7-2.5
	C432.9,296,434.3,297.7,433.9,304.2z"/>
</svg>
