<?xml version="1.0" encoding="utf-8"?>
<!-- Generator: Adobe Illustrator 25.3.1, SVG Export Plug-In . SVG Version: 6.00 Build 0)  -->
<svg version="1.1" id="Layer_1" xmlns="http://www.w3.org/2000/svg" xmlns:xlink="http://www.w3.org/1999/xlink" x="0px" y="0px"
	 viewBox="0 0 512 512" style="enable-background:new 0 0 512 512;" xml:space="preserve">
<style type="text/css">
	.st0{fill:#827377;}
</style>
<path class="st0" d="M256-0.1C114.6-0.1,0,114.5,0,255.9s114.6,256,256,256c141.4,0,256-114.6,256-256S397.4-0.1,256-0.1z
	 M370.8,96.3v237.5v0.3c0,26.6-28,43.3-50,43.3c-17.3,0-42.7-7.7-42.7-33.5c0,0,0-0.1,0-0.1c0,0,0-0.1,0-0.1
	c0-28.1,25.4-37.8,50.7-41.3c23.4-3.2,23.9-16.9,23.9-20.4V173.6c0-4.9-4.5-8.5-9.3-7.5l-127.4,26.4c-4.5,0.9-7.8,4.9-7.8,9.6v163.1
	v0.3c0,26.6-27.3,43.3-50,43.3c-17.3,0-42.7-7.7-42.7-33.5c0,0,0-0.1,0-0.1c0,0,0-0.1,0-0.1c0-28.1,25.4-37.8,50.7-41.3
	c23.4-3.2,23.9-16.5,23.9-20.4V131.8v-0.3c0-5.1,3.6-9.5,8.6-10.5l161.6-33.5c5.4-1.1,10.4,3,10.4,8.5V96.3z"/>
</svg>
