<?xml version="1.0" encoding="utf-8"?>
<!-- Generator: Adobe Illustrator 25.3.1, SVG Export Plug-In . SVG Version: 6.00 Build 0)  -->
<svg version="1.1" id="Layer_1" xmlns="http://www.w3.org/2000/svg" xmlns:xlink="http://www.w3.org/1999/xlink" x="0px" y="0px"
	 viewBox="0 0 512 512" style="enable-background:new 0 0 512 512;" xml:space="preserve">
<style type="text/css">
	.st0{fill:#827377;}
</style>
<g>
	<path class="st0" d="M249.7,367.1c0-5-4.1-8.3-10-8.3c-5.4,0-10,3.2-11.3,8.7h21.2L249.7,367.1z"/>
	<path class="st0" d="M135.9,359.6c-7.5,0-13.2,5.6-13.2,14.5c0,8.8,5.8,14.2,13.2,14.2c7.2,0,13.2-5.5,13.2-14.2
		C149.1,365.3,143.1,359.6,135.9,359.6z"/>
	<path class="st0" d="M345.1,367.1c0-5-4.1-8.3-10-8.3c-5.4,0-10,3.2-11.3,8.7H345L345.1,367.1z"/>
	<path class="st0" d="M256,0C114.7,0,0.1,114.6,0.1,255.9S114.7,511.8,256,511.8s255.9-114.6,255.9-255.9S397.3,0,256,0z
		 M262.4,214.2h63.9v38.3h-63.9V214.2z M262.4,265.3h63.9v38.3h-63.9V265.3z M185.8,163.1h63.9v38.3h-63.9L185.8,163.1L185.8,163.1z
		 M185.8,214.2h63.9v38.3h-63.9L185.8,214.2L185.8,214.2z M185.8,265.3h63.9v38.3h-63.9L185.8,265.3L185.8,265.3z M109.1,265.3H173
		v38.3h-63.9V265.3z M161.9,398.7H149v-7.1c-3.2,5.1-8.9,8.2-15.9,8.2c-14,0-23.9-10.3-23.9-25.6c0-15.6,9.9-26.1,23.6-26.1
		c7,0,12.7,3.4,15.7,8.5v-31.1h13.4V398.7z M191.7,399.8c-15.4,0-26.3-10.5-26.3-26.2c0-14.1,10-25.5,24.7-25.5
		c13.7,0,23,8.7,23,22.3c0,2-0.2,4.1-0.6,6.1h-33.7c0.1,7.5,6,11.8,13.1,11.8c6.1,0,9.9-2.8,11.5-8.5l11.4,4.5
		C211.4,393.9,203.4,399.8,191.7,399.8z M241.2,399.8c-15.4,0-26.3-10.5-26.3-26.2c0-14.1,10-25.5,24.7-25.5c13.7,0,23,8.7,23,22.3
		c0,2-0.2,4.1-0.7,6.1h-33.7c0.1,7.5,6,11.8,13.1,11.8c6.1,0,9.9-2.8,11.5-8.5l11.5,4.5C260.9,393.9,252.9,399.8,241.2,399.8z
		 M309.7,398.7h-44.8v-11.5l27.2-26.6h-26.4v-11.5H309v11l-27.3,26.6h28.1v12H309.7z M336.6,399.8c-15.4,0-26.3-10.5-26.3-26.2
		c0-14.1,10-25.5,24.7-25.5c13.7,0,23,8.7,23,22.3c0,2-0.2,4.1-0.7,6.1h-33.7c0.1,7.5,6,11.8,13.1,11.8c6.1,0,9.9-2.8,11.5-8.5
		l11.5,4.5C356.3,393.9,348.3,399.8,336.6,399.8z M402.3,367.6h-12.7c0.1-0.8,0.2-1.7,0.2-2.5c0-3.7-2.5-6.2-6.3-6.2
		c-4.2,0-6.9,2.8-6.9,7.8v31.9h-13.4V349h13.4v6.4c2.1-4.6,6.2-7.4,11.9-7.4c8.9,0,14.2,6.2,14.2,14.7
		C402.7,364.4,402.6,366,402.3,367.6z M402.9,303.6H339v-38.3h63.9V303.6z M402.9,252.5H339v-38.3h63.9V252.5z M402.9,201.4H339
		v-38.3h63.9V201.4z M402.9,150.3H339V112h63.9V150.3z"/>
	<path class="st0" d="M200.2,367.1c0-5-4.1-8.3-10-8.3c-5.4,0-10,3.2-11.3,8.7h21.2L200.2,367.1z"/>
</g>
</svg>
