<?xml version="1.0" encoding="utf-8"?>
<!-- Generator: Adobe Illustrator 25.3.1, SVG Export Plug-In . SVG Version: 6.00 Build 0)  -->
<svg version="1.1" id="Layer_1" xmlns="http://www.w3.org/2000/svg" xmlns:xlink="http://www.w3.org/1999/xlink" x="0px" y="0px"
	 viewBox="0 0 512 512" style="enable-background:new 0 0 512 512;" xml:space="preserve">
<style type="text/css">
	.st0{fill:#827377;}
</style>
<path class="st0" d="M256-0.1C114.6-0.1,0,114.5,0,255.9s114.6,256,256,256c141.4,0,256-114.6,256-256S397.4-0.1,256-0.1z
	 M74.6,300.2c0,3.3-2.7,6-6,6c-3.3,0-6-2.7-6-6l-1.7-26.8l1.7-26.8c0-3.3,2.7-6,6-6c3.3,0,6,2.7,6,6l1.7,26.8L74.6,300.2z
	 M100.8,317.7c0,3.9-3.2,7-7,7c-3.9,0-7-3.2-7-7l-1.4-41.9l1.4-46.6c0-3.9,3.2-7,7-7c3.9,0,7,3.2,7,7l1.3,46.5L100.8,317.7z
	 M127,317.3c0,4.1-3.4,7.5-7.5,7.5c-4.1,0-7.5-3.4-7.5-7.5l-0.8-41.5l0.8-35.2c0-4.1,3.4-7.5,7.5-7.5c4.1,0,7.5,3.4,7.5,7.5
	l0.9,35.1L127,317.3z M154.9,316.4c0,4.6-3.8,8.4-8.4,8.4c-4.6,0-8.4-3.8-8.4-8.4l-1-45.9l1-66.7c0-4.6,3.8-8.4,8.4-8.4
	c4.6,0,8.4,3.8,8.4,8.4l1,66.5L154.9,316.4z M182.5,316c0,4.8-3.9,8.7-8.7,8.7s-8.7-3.9-8.7-8.7V185.2c0-4.8,3.9-8.7,8.7-8.7
	s8.7,3.9,8.7,8.7V316z M209.6,315.8c0,4.9-4,8.9-8.9,8.9c-4.9,0-8.9-4-8.9-8.9V196c0-4.9,4-8.9,8.9-8.9c4.9,0,8.9,4,8.9,8.9V315.8z
	 M236.7,315.8c0,4.9-4,8.9-8.9,8.9s-8.9-4-8.9-8.9V167.2c0-4.9,4-8.9,8.9-8.9s8.9,4,8.9,8.9V315.8z M395.9,324.7H261.4
	c-8.6,0-15.6-7-15.6-15.6V165.1c0-7.6,4-14.7,10.6-18.4c6.1-3.4,14.3-5.3,25.3-5.3c47.1,0,86.5,32.2,97,75.6
	c6.7-2.2,13.9-3.1,21.4-2.6c27.7,2.1,49.7,24.8,50.9,52.5C452.5,298.6,427.2,324.7,395.9,324.7z"/>
</svg>
