<?xml version="1.0" encoding="utf-8"?>
<!-- Generator: Adobe Illustrator 25.3.1, SVG Export Plug-In . SVG Version: 6.00 Build 0)  -->
<svg version="1.1" id="Layer_1" xmlns="http://www.w3.org/2000/svg" xmlns:xlink="http://www.w3.org/1999/xlink" x="0px" y="0px"
	 viewBox="0 0 512 512" style="enable-background:new 0 0 512 512;" xml:space="preserve">
<style type="text/css">
	.st0{fill:#827377;}
</style>
<path class="st0" d="M256,0C114.7,0,0.1,114.6,0.1,255.9S114.7,511.8,256,511.8s255.9-114.6,255.9-255.9S397.3,0,256,0z
	 M373.4,367.4c-2.8,4.8-7.9,7.5-13,7.5c-2.6,0-5.2-0.7-7.6-2.1c-95-55.7-220.7-23.5-222-23.2c-8.1,2.1-16.3-2.7-18.5-10.8
	c-2.1-8.1,2.7-16.3,10.8-18.5c1.4-0.4,35.2-9.2,82.1-10.4c62.6-1.7,118.9,11,162.9,36.8C375.2,351,377.6,360.2,373.4,367.4z
	 M404.2,297.9c-4,6.6-11,10.3-18.2,10.3c-3.8,0-7.6-1-11-3.1c-106.8-64.7-248.4-27.2-249.8-26.8c-11.3,3.1-23-3.6-26.1-14.9
	c-3.1-11.3,3.6-23,14.9-26.1c1.6-0.4,40.7-10.9,94.7-12.5c31.8-0.9,62.4,1.5,90.9,7.1c36.1,7.1,68.8,19.5,97.4,36.8
	C407.1,274.8,410.3,287.9,404.2,297.9z M417.6,231.6c-4.4,0-8.8-1.2-12.8-3.6c-64-38.7-138.9-45.3-190.4-44
	c-57.2,1.5-99.3,12.7-99.7,12.8c-13.2,3.6-26.7-4.2-30.3-17.4c-3.6-13.2,4.2-26.7,17.4-30.3c1.9-0.5,47.3-12.7,110-14.5
	c37-1,72.5,1.7,105.6,8.3c41.9,8.3,80,22.7,113.1,42.8c11.7,7.1,15.4,22.3,8.3,33.9C434.1,227.4,425.9,231.6,417.6,231.6z"/>
</svg>
