<?xml version="1.0" encoding="utf-8"?>
<!-- Generator: Adobe Illustrator 25.3.1, SVG Export Plug-In . SVG Version: 6.00 Build 0)  -->
<svg version="1.1" id="Layer_1" xmlns="http://www.w3.org/2000/svg" xmlns:xlink="http://www.w3.org/1999/xlink" x="0px" y="0px"
	 viewBox="0 0 512 512" style="enable-background:new 0 0 512 512;" xml:space="preserve">
<style type="text/css">
	.st0{fill:#827377;}
</style>
<g>
	<path class="st0" d="M256,124.1c-72.8,0-131.8,59-131.8,131.8s59,131.8,131.8,131.8s131.8-59,131.8-131.8S328.8,124.1,256,124.1z
		 M206.2,331V180.8l130,75.1L206.2,331z"/>
	<path class="st0" d="M256,0C114.7,0,0.1,114.6,0.1,255.9S114.7,511.8,256,511.8c141.3,0,255.9-114.6,255.9-255.9S397.3,0,256,0z
		 M256,408.8c-84.4,0-152.9-68.5-152.9-152.9c0-84.4,68.5-152.9,152.9-152.9c84.4,0,152.9,68.5,152.9,152.9
		C408.9,340.3,340.4,408.8,256,408.8z"/>
</g>
</svg>
